<svg height="448pt" viewBox="-23 0 447 448" width="448pt" xmlns="http://www.w3.org/2000/svg"><path d="m296.5 320c13.253906 0 24-10.746094 24-24v-10.328125c-4.679688-2.046875-8.570312-5.554687-11.089844-10l-4.382812 2.921875c-9.195313 6.140625-20.003906 9.417969-31.0625 9.40625h-1.464844v8c0 13.253906 10.746094 24 24 24zm0 0"/><path d="m296.5 416c10.867188-.003906 21.667969-1.722656 32-5.089844v-26.910156h16v20.167969c5.640625-2.96875 10.996094-6.453125 16-10.398438v-9.609375c-.019531-10.710937-7.105469-20.125-17.390625-23.105468l-17.410156-4.964844-24.398438 18.308594c-2.84375 2.136718-6.757812 2.136718-9.601562 0l-24.398438-18.308594-17.402343 4.957031c-10.289063 2.984375-17.378907 12.398437-17.398438 23.113281v9.648438c5.003906 3.949218 10.359375 7.429687 16 10.398437v-20.207031h16v26.910156c10.332031 3.367188 21.132812 5.085938 32 5.089844zm0 0"/><path d="m286.15625 42.34375 10.34375 10.34375v-52.6875h-32v52.6875l10.34375-10.34375c3.125-3.121094 8.1875-3.121094 11.3125 0zm0 0"/><path d="m296.5 432c-47.863281.152344-91.238281-28.152344-110.375-72.019531-19.136719-43.871094-10.375-94.917969 22.300781-129.894531 32.671875-34.976563 83.003907-47.191407 128.074219-31.085938v-175c0-13.253906-10.746094-24-24-24v72c0 3.234375-1.949219 6.152344-4.9375 7.390625s-6.429688.550781-8.71875-1.734375l-18.34375-18.34375-18.34375 18.34375c-2.289062 2.285156-5.730469 2.972656-8.71875 1.734375s-4.9375-4.15625-4.9375-7.390625v-72h-224c-13.253906 0-24 10.746094-24 24v400c0 13.253906 10.746094 24 24 24h288c1.671875-.003906 3.339844-.183594 4.976562-.535156.398438-.082032.800782-.257813 1.160157-.359375 1.191406-.292969 2.355469-.675781 3.488281-1.152344.527344-.234375 1.015625-.5625 1.527344-.800781.914062-.457032 1.800781-.976563 2.648437-1.550782.558594-.394531 1.054688-.859374 1.597657-1.296874.726562-.589844 1.417968-1.222657 2.066406-1.898438 3.929687-4.164062 6.222656-9.609375 6.457031-15.335938-12.816406 4.570313-26.316406 6.914063-39.921875 6.929688zm-40-304h48v16h-48zm-176-96h80v16h-80zm-48 0h32v16h-32zm0 32h128v16h-128zm0 64h208v16h-208zm0 48h160v16h-160zm80 224h-80v-16h80zm0-32h-80v-16h80zm32-80h-112v-16h112zm16-48h-128v-16h128zm0 0"/><path d="m296.5 336c-2.6875.003906-5.367188-.265625-8-.800781v8.800781c-.027344 2.277344-1.03125 4.433594-2.761719 5.921875l10.761719 8.078125 10.761719-8.078125c-1.730469-1.488281-2.734375-3.644531-2.761719-5.921875v-8.800781c-2.632812.535156-5.3125.804687-8 .800781zm0 0"/><path d="m296.15625 265.28125 11.902344-7.9375c1.914062-1.273438 4.277344-1.667969 6.5-1.074219 2.21875.589844 4.078125 2.105469 5.101562 4.164063l3.558594 7.132812c1.050781 2.117188 2.984375 3.660156 5.28125 4.21875-.058594-17.675781-14.433594-31.953125-32.109375-31.894531-17.671875.0625-31.949219 14.4375-31.890625 32.109375h9.464844c7.898437.007812 15.621094-2.332031 22.191406-6.71875zm0 0"/><path d="m400.5 312c.058594-45.984375-30.09375-86.550781-74.140625-99.753906-44.050781-13.203125-91.542969 4.09375-116.789063 42.53125-25.242187 38.4375-22.246093 88.890625 7.371094 124.070312 2.117188-15.738281 13.316406-28.75 28.566406-33.183594l26.992188-7.710937v-10.160156c-10.035156-7.492188-15.964844-19.269531-16-31.792969v-8c-4.417969 0-8-3.582031-8-8v-8c0-26.507812 21.492188-48 48-48s48 21.492188 48 48v8c0 4.417969-3.582031 8-8 8v8c-.035156 12.523438-5.964844 24.300781-16 31.792969v10.160156l27 7.710937c15.246094 4.4375 26.445312 17.445313 28.558594 33.183594 15.792968-18.691406 24.453125-42.375 24.441406-66.847656zm-168 8h-16v-16h16zm128 0v-16h16v16zm0 0"/></svg>